<?xml version="1.0" encoding="UTF-8"?>
<svg version="1.1" xmlns="http://www.w3.org/2000/svg" width="512" height="512">
<path d="M0 0 C8.97777178 5.4946696 14.58427291 13.44628167 19.89624023 22.29956055 C25.73828384 31.72409982 31.7919808 40.75264339 38.63745117 49.47241211 C40.02039663 51.23598476 41.38548286 53.01221159 42.74780273 54.79174805 C57.70122736 74.21692278 74.28913662 93.41691152 92.91186523 109.4050293 C95.1975357 111.39017642 97.41825402 113.43745885 99.64624023 115.48706055 C105.84542437 121.07386327 112.42109002 126.13876005 119.02124023 131.23706055 C124.35626497 135.3689623 129.6859825 139.50751942 135.00317383 143.66235352 C136.24357053 144.63024109 137.48569992 145.595919 138.73071289 146.55786133 C161.50221534 164.18013869 175.15047831 188.71059485 179.63305664 217.0065918 C180.31293839 222.66457626 180.36113285 228.29409318 180.33374023 233.98706055 C180.32810059 235.2184375 180.32246094 236.44981445 180.31665039 237.71850586 C179.91136181 268.17534104 166.89840099 294.32079826 145.5012207 315.81860352 C126.0196857 334.49028256 99.41130006 345.41593762 72.52124023 345.73706055 C71.62606689 345.75551025 70.73089355 345.77395996 69.80859375 345.79296875 C62.20938336 345.72175039 55.6806565 343.81855208 49.43530273 339.4128418 C42.36618862 332.05046749 38.89103648 324.55570831 39.02124023 314.23706055 C39.91307034 304.64988696 44.62181848 298.13740089 51.56811523 291.7800293 C57.86575904 287.81893168 65.01522439 286.78274534 72.27124023 285.86206055 C88.04961894 283.57498163 99.7606921 277.99537021 110.16967773 265.7409668 C117.63511173 255.64530606 122.73830963 241.93179831 121.02124023 229.23706055 C117.44335895 209.79117471 108.40060387 198.39408132 93.02124023 186.23706055 C91.28928424 184.82380535 89.56012825 183.40711204 87.83374023 181.98706055 C84.63916197 179.37124325 81.43845448 176.76337252 78.22827148 174.16674805 C36.00499994 139.99839323 36.00499994 139.99839323 20.38183594 122.08935547 C19.75227493 121.36818039 19.12271393 120.64700531 18.47407532 119.90397644 C17.99463974 119.3538942 17.51520416 118.80381195 17.02124023 118.23706055 C17.01988371 118.88134715 17.01852718 119.52563375 17.01712954 120.18944418 C16.93640661 158.41036168 16.84542226 196.63124204 16.74118862 234.85210291 C16.72867038 239.44559119 16.71623751 244.0390797 16.70385742 248.63256836 C16.70139143 249.54701475 16.69892543 250.46146114 16.69638471 251.40361802 C16.65670603 266.19279602 16.62393709 280.98198161 16.59374042 295.77118166 C16.56258068 310.95637865 16.52395207 326.14154353 16.47845018 341.32670438 C16.450627 350.68997746 16.42856733 360.05322716 16.41397773 369.41653036 C16.40340175 375.84510251 16.38554376 382.27362928 16.3620732 388.70216717 C16.34876165 392.40610164 16.33855159 396.10997276 16.3370266 399.81393242 C16.33528348 403.8422337 16.3181495 407.87033062 16.29971313 411.89859009 C16.30164787 413.05233143 16.3035826 414.20607278 16.30557597 415.39477599 C16.11832657 442.9166675 7.1827204 465.61472337 -11.85375977 485.42456055 C-31.71139667 504.71053821 -55.91960085 510.78739609 -82.90454102 510.51831055 C-91.14207067 510.30099015 -98.21994109 509.02367852 -105.97875977 506.23706055 C-107.03579102 505.86323242 -108.09282227 505.4894043 -109.18188477 505.10424805 C-122.12018989 500.09480171 -132.26248737 492.93985684 -141.97875977 483.23706055 C-142.79473633 482.43268555 -143.61071289 481.62831055 -144.45141602 480.79956055 C-161.1139853 463.42247286 -168.61638292 439.29430712 -168.18969727 415.5847168 C-167.2640884 390.17618216 -156.05904093 367.50062764 -137.72875977 350.04956055 C-117.4080189 332.21592009 -92.47720548 325.70338845 -65.97875977 327.23706055 C-58.42655691 328.0794513 -51.17161639 329.79494025 -43.97875977 332.23706055 C-43.97816268 331.58528688 -43.97756559 330.93351321 -43.97695041 330.26198882 C-43.94104083 291.61536686 -43.88437785 252.96882502 -43.80083881 214.32227538 C-43.7908216 209.67985708 -43.78097743 205.03743843 -43.77124023 200.39501953 C-43.76832817 199.00871178 -43.76832817 199.00871178 -43.76535729 197.59439782 C-43.73435316 182.6382904 -43.71736107 167.68219832 -43.70556554 152.72606482 C-43.69314576 137.37474954 -43.66562567 122.02351463 -43.6241467 106.67225009 C-43.59903499 97.20298521 -43.58564079 87.73385366 -43.58733019 78.26455501 C-43.58735999 71.76728732 -43.57269565 65.27015524 -43.54659548 58.77294042 C-43.53197686 55.02677494 -43.52372295 51.28088754 -43.53295708 47.53469849 C-43.54281668 43.46575543 -43.52167468 39.39754359 -43.4977417 35.32865906 C-43.50550212 34.15450634 -43.51326253 32.98035363 -43.52125812 31.77062052 C-43.42129087 22.14944002 -41.5527187 12.94564962 -34.76000977 5.73706055 C-25.79702327 -1.81071755 -10.98495086 -5.44177566 0 0 Z " fill="#000000" transform="translate(331.978759765625,1.762939453125)"/>
<path d="M0 0 C0.79521803 -0.0060911 1.59043605 -0.01218221 2.40975159 -0.01845789 C5.05962606 -0.03503294 7.7090171 -0.03031999 10.3589325 -0.0255127 C12.26490272 -0.03285628 14.17086849 -0.04144335 16.076828 -0.05117798 C21.24431497 -0.07337367 26.41164238 -0.07632558 31.57917047 -0.07443047 C35.89809397 -0.07431066 40.21698379 -0.08287903 44.53589791 -0.09120798 C54.72872271 -0.11043556 64.92146562 -0.11332842 75.11430359 -0.10656738 C85.61683194 -0.09992886 96.11900889 -0.12278496 106.62146598 -0.15988111 C115.64931009 -0.19060749 124.67704135 -0.20193489 133.70493668 -0.1980443 C139.09206777 -0.19597963 144.47892544 -0.20141249 149.86600685 -0.22593689 C154.93461054 -0.24824953 160.00264429 -0.24628848 165.07125092 -0.22600937 C166.92633955 -0.22260719 168.78146688 -0.22765414 170.63650322 -0.24199295 C190.6541707 -0.38598677 190.6541707 -0.38598677 198.9458971 7.38419342 C205.46207196 14.15559512 207.38886351 21.01332392 207.30302429 30.32580566 C207.00401392 38.84858491 204.09871081 44.56370521 197.94755554 50.33190918 C192.07178846 55.33491588 186.21670531 56.84396474 178.64511108 56.78881836 C177.84989306 56.79490946 177.05467503 56.80100057 176.23535949 56.80727625 C173.58548502 56.8238513 170.93609398 56.81913835 168.28617859 56.81433105 C166.38020837 56.82167464 164.47424259 56.83026171 162.56828308 56.83999634 C157.40079611 56.86219203 152.23346871 56.86514394 147.06594062 56.86324883 C142.74701712 56.86312902 138.42812729 56.87169739 134.10921317 56.88002634 C123.91638837 56.89925392 113.72364546 56.90214678 103.5308075 56.89538574 C93.02827914 56.88874722 82.5261022 56.91160332 72.0236451 56.94869947 C62.99580099 56.97942585 53.96806974 56.99075325 44.9401744 56.98686266 C39.55304332 56.98479799 34.16618564 56.99023085 28.77910423 57.01475525 C23.71050054 57.03706789 18.6424668 57.03510684 13.57386017 57.01482773 C11.71877154 57.01142554 9.8636442 57.0164725 8.00860786 57.03081131 C-12.00905961 57.17480513 -12.00905961 57.17480513 -20.30078602 49.40462494 C-26.81696088 42.63322324 -28.74375242 35.77549444 -28.65791321 26.4630127 C-28.35890283 17.94023345 -25.45359973 12.22511315 -19.30244446 6.45690918 C-13.42667738 1.45390248 -7.57159423 -0.05514638 0 0 Z " fill="#000000" transform="translate(28.177444458007813,178.6055908203125)"/>
<path d="M0 0 C0.79521803 -0.0060911 1.59043605 -0.01218221 2.40975159 -0.01845789 C5.05962606 -0.03503294 7.7090171 -0.03031999 10.3589325 -0.0255127 C12.26490272 -0.03285628 14.17086849 -0.04144335 16.076828 -0.05117798 C21.24431497 -0.07337367 26.41164238 -0.07632558 31.57917047 -0.07443047 C35.89809397 -0.07431066 40.21698379 -0.08287903 44.53589791 -0.09120798 C54.72872271 -0.11043556 64.92146562 -0.11332842 75.11430359 -0.10656738 C85.61683194 -0.09992886 96.11900889 -0.12278496 106.62146598 -0.15988111 C115.64931009 -0.19060749 124.67704135 -0.20193489 133.70493668 -0.1980443 C139.09206777 -0.19597963 144.47892544 -0.20141249 149.86600685 -0.22593689 C154.93461054 -0.24824953 160.00264429 -0.24628848 165.07125092 -0.22600937 C166.92633955 -0.22260719 168.78146688 -0.22765414 170.63650322 -0.24199295 C190.6541707 -0.38598677 190.6541707 -0.38598677 198.9458971 7.38419342 C205.46207196 14.15559512 207.38886351 21.01332392 207.30302429 30.32580566 C207.00401392 38.84858491 204.09871081 44.56370521 197.94755554 50.33190918 C192.07178846 55.33491588 186.21670531 56.84396474 178.64511108 56.78881836 C177.84989306 56.79490946 177.05467503 56.80100057 176.23535949 56.80727625 C173.58548502 56.8238513 170.93609398 56.81913835 168.28617859 56.81433105 C166.38020837 56.82167464 164.47424259 56.83026171 162.56828308 56.83999634 C157.40079611 56.86219203 152.23346871 56.86514394 147.06594062 56.86324883 C142.74701712 56.86312902 138.42812729 56.87169739 134.10921317 56.88002634 C123.91638837 56.89925392 113.72364546 56.90214678 103.5308075 56.89538574 C93.02827914 56.88874722 82.5261022 56.91160332 72.0236451 56.94869947 C62.99580099 56.97942585 53.96806974 56.99075325 44.9401744 56.98686266 C39.55304332 56.98479799 34.16618564 56.99023085 28.77910423 57.01475525 C23.71050054 57.03706789 18.6424668 57.03510684 13.57386017 57.01482773 C11.71877154 57.01142554 9.8636442 57.0164725 8.00860786 57.03081131 C-12.00905961 57.17480513 -12.00905961 57.17480513 -20.30078602 49.40462494 C-26.81696088 42.63322324 -28.74375242 35.77549444 -28.65791321 26.4630127 C-28.35890283 17.94023345 -25.45359973 12.22511315 -19.30244446 6.45690918 C-13.42667738 1.45390248 -7.57159423 -0.05514638 0 0 Z " fill="#000000" transform="translate(28.177444458007813,80.6055908203125)"/>
<path d="M0 0 C1.07735916 -0.00846954 2.15471832 -0.01693909 3.26472473 -0.02566528 C6.8148693 -0.04900238 10.36457954 -0.05005808 13.91479492 -0.04882812 C16.3919034 -0.05593228 18.86901024 -0.06363165 21.34611511 -0.07189941 C26.53515192 -0.08533717 31.72403661 -0.08691635 36.91308594 -0.08105469 C43.54740718 -0.0751632 50.18099548 -0.10573195 56.81517506 -0.14617157 C61.93088176 -0.17208196 67.04641286 -0.17492282 72.16217613 -0.17127991 C74.607295 -0.17296839 77.05242221 -0.18258452 79.49747658 -0.20042419 C82.92459076 -0.22267585 86.35023256 -0.21287836 89.77734375 -0.1953125 C91.27784271 -0.21520737 91.27784271 -0.21520737 92.80865479 -0.23550415 C100.72456546 -0.14171304 107.3358699 1.95724159 113.2358675 7.40970612 C119.69528562 14.23408572 121.64924012 21.02055838 121.56323242 30.35131836 C121.26422205 38.87409761 118.35891894 44.58921791 112.20776367 50.35742188 C105.34741537 56.19876447 98.84192246 56.86510899 90.16552734 56.83984375 C89.08816818 56.84831329 88.01080902 56.85678284 86.90080261 56.86550903 C83.35065804 56.88884613 79.8009478 56.88990183 76.25073242 56.88867188 C73.77362394 56.89577603 71.2965171 56.9034754 68.81941223 56.91174316 C63.63037542 56.92518092 58.44149073 56.9267601 53.25244141 56.92089844 C46.61812016 56.91500695 39.98453187 56.9455757 33.35035229 56.98601532 C28.23464558 57.01192571 23.11911449 57.01476657 18.00335121 57.01112366 C15.55823235 57.01281214 13.11310513 57.02242827 10.66805077 57.04026794 C7.24093658 57.0625196 3.81529478 57.05272211 0.38818359 57.03515625 C-1.11231537 57.05505112 -1.11231537 57.05505112 -2.64312744 57.0753479 C-10.55903812 56.98155679 -17.17034256 54.88260216 -23.07034016 49.43013763 C-29.52975828 42.60575803 -31.48371277 35.81928537 -31.39770508 26.48852539 C-31.0986947 17.96574614 -28.1933916 12.25062584 -22.04223633 6.48242188 C-15.18188803 0.64107928 -8.67639512 -0.02526524 0 0 Z " fill="#000000" transform="translate(30.917236328125,276.580078125)"/>
<path d="M0 0 C0.82376633 -0.00846954 1.64753265 -0.01693909 2.4962616 -0.02566528 C5.20233881 -0.04894222 7.90784418 -0.05005954 10.61401367 -0.04882812 C12.50819624 -0.05593622 14.40237668 -0.06363616 16.29655457 -0.07189941 C20.26156603 -0.08532354 24.22637846 -0.0869227 28.19140625 -0.08105469 C33.25193036 -0.07516599 38.31149264 -0.10572549 43.37183094 -0.14617157 C47.2831479 -0.17212824 51.19423586 -0.17491867 55.10562706 -0.17127991 C56.97020569 -0.17296425 58.83479569 -0.18254024 60.69928932 -0.20042419 C81.29162046 -0.37619331 81.29162046 -0.37619331 89.59040833 7.40979004 C96.1112548 14.17673409 98.03577591 21.04040744 97.94995117 30.35131836 C97.6509408 38.87409761 94.74563769 44.58921791 88.59448242 50.35742188 C82.54591192 55.50756454 76.63331966 56.86938588 68.93896484 56.83984375 C68.11519852 56.84831329 67.29143219 56.85678284 66.44270325 56.86550903 C63.73662603 56.88878597 61.03112067 56.88990329 58.32495117 56.88867188 C56.4307686 56.89577997 54.53658816 56.90347991 52.64241028 56.91174316 C48.67739881 56.92516729 44.71258638 56.92676645 40.74755859 56.92089844 C35.68703448 56.91500974 30.6274722 56.94556924 25.5671339 56.98601532 C21.65581695 57.01197199 17.74472899 57.01476242 13.83333778 57.01112366 C11.96875915 57.012808 10.10416915 57.02238399 8.23967552 57.04026794 C-12.35265561 57.21603706 -12.35265561 57.21603706 -20.65144348 49.43005371 C-27.17228995 42.66310966 -29.09681106 35.79943631 -29.01098633 26.48852539 C-28.71197595 17.96574614 -25.80667285 12.25062584 -19.65551758 6.48242188 C-13.60694708 1.33227921 -7.69435481 -0.02954213 0 0 Z " fill="#000000" transform="translate(28.530517578125,374.580078125)"/>
</svg>
